<?xml version="1.0" standalone="no"?>
<!DOCTYPE svg PUBLIC "-//W3C//DTD SVG 20010904//EN"
 "http://www.w3.org/TR/2001/REC-SVG-20010904/DTD/svg10.dtd">
<svg version="1.0" xmlns="http://www.w3.org/2000/svg"
 width="1024.000000pt" height="1024.000000pt" viewBox="0 0 1024.000000 1024.000000"
 preserveAspectRatio="xMidYMid meet">
<metadata>
Created by potrace 1.11, written by Peter Selinger 2001-2013
</metadata>
<g transform="translate(0.000000,1024.000000) scale(0.100000,-0.100000)"
fill="#000000" stroke="none">
<path d="M4835 10234 c-411 -27 -824 -99 -1185 -208 -1217 -365 -2258 -1172
-2914 -2259 -394 -652 -631 -1366 -712 -2142 -25 -238 -25 -772 0 -1010 34
-328 102 -672 190 -965 365 -1217 1172 -2258 2259 -2914 652 -394 1366 -631
2142 -712 238 -25 772 -25 1010 0 1200 125 2274 634 3115 1476 677 677 1151
1527 1365 2447 95 409 129 718 129 1173 0 455 -34 764 -129 1173 -309 1331
-1160 2500 -2338 3211 -648 391 -1372 633 -2132 711 -143 15 -670 27 -800 19z
m675 -424 c1049 -74 1904 -404 2595 -1002 380 -329 724 -783 913 -1203 76
-170 78 -167 -41 -77 -722 549 -1731 985 -2697 1166 -419 79 -673 101 -1160
101 -487 0 -741 -22 -1160 -101 -966 -181 -1975 -617 -2697 -1166 -119 -90
-117 -93 -41 77 83 185 205 390 345 582 704 965 1791 1526 3143 1622 169 12
633 12 800 1z m1726 -2090 c271 -22 518 -78 723 -166 165 -70 165 -20 5 -406
-75 -183 -139 -335 -140 -337 -2 -2 -56 19 -121 47 -228 98 -395 139 -598 149
-266 13 -415 -49 -415 -171 0 -31 7 -45 38 -76 48 -49 127 -73 452 -141 505
-105 685 -182 862 -367 120 -126 165 -241 175 -448 4 -92 2 -140 -12 -205 -65
-323 -301 -564 -674 -688 -404 -134 -1015 -109 -1509 61 -108 37 -285 118
-296 136 -5 8 278 659 293 675 4 4 63 -19 132 -52 131 -63 223 -97 354 -130
198 -52 416 -71 571 -52 159 19 214 57 214 144 0 44 -4 53 -35 83 -44 41 -152
77 -385 129 -582 128 -745 196 -927 388 -126 133 -176 273 -177 492 0 139 13
211 61 328 173 427 718 661 1409 607z m-3336 -88 c153 -30 362 -101 478 -162
264 -139 475 -361 585 -615 172 -396 146 -927 -62 -1283 -187 -321 -512 -542
-932 -636 -195 -43 -267 -46 -1069 -46 l-760 0 0 1385 0 1386 823 -3 c805 -4
824 -4 937 -26z m1048 -3397 c310 -74 525 -325 588 -685 25 -144 15 -401 -20
-535 -60 -228 -182 -405 -354 -509 -32 -19 -101 -50 -153 -68 -91 -31 -100
-33 -254 -33 -138 0 -171 3 -240 23 -214 62 -376 203 -474 412 -147 315 -130
765 41 1054 52 88 172 209 258 259 70 41 192 83 280 97 73 12 250 4 328 -15z
m2260 0 c310 -74 525 -325 588 -685 25 -144 15 -401 -20 -535 -60 -228 -182
-405 -354 -509 -32 -19 -101 -50 -153 -68 -91 -31 -100 -33 -254 -33 -138 0
-171 3 -240 23 -214 62 -376 203 -474 412 -147 315 -130 765 41 1054 52 88
172 209 258 259 70 41 192 83 280 97 73 12 250 4 328 -15z m-3990 -907 l2
-888 -305 0 -305 0 0 660 0 660 -150 0 -150 0 0 223 c0 123 3 227 7 230 3 4
207 6 452 5 l446 -3 3 -887z m-1745 -766 c819 -550 1792 -924 2762 -1061 331
-47 463 -55 880 -56 488 0 747 23 1165 101 966 181 1975 617 2697 1166 119 90
117 93 41 -77 -83 -185 -205 -390 -345 -582 -628 -861 -1573 -1407 -2728
-1577 -440 -65 -1036 -73 -1495 -20 -1380 159 -2478 847 -3110 1948 -58 100
-158 309 -175 364 -5 18 17 5 98 -56 57 -44 152 -111 210 -150z"/>
<path d="M3080 6274 l0 -656 273 5 c305 5 338 11 468 78 143 74 249 213 290
379 21 83 18 327 -5 410 -64 233 -238 385 -490 429 -33 6 -167 11 -298 11
l-238 0 0 -656z"/>
<path d="M4645 3727 c-67 -67 -86 -141 -92 -357 -6 -203 9 -309 54 -392 35
-64 68 -89 125 -95 78 -9 139 39 177 141 28 75 45 248 37 381 -16 259 -75 365
-205 365 -50 0 -57 -3 -96 -43z"/>
<path d="M6905 3727 c-67 -67 -86 -141 -92 -357 -6 -203 9 -309 54 -392 35
-64 68 -89 125 -95 78 -9 139 39 177 141 28 75 45 248 37 381 -16 259 -75 365
-205 365 -50 0 -57 -3 -96 -43z"/>
</g>
</svg>
